<svg id="Layer_1" data-name="Layer 1" xmlns="http://www.w3.org/2000/svg" viewBox="0 0 909.51 217"><defs><style>.cls-1{fill:#131011;}.cls-2{fill:#46413d;}.cls-3{fill:#736966;}.cls-4{fill:#a79b95;}</style></defs><title>bioX_logo</title><path class="cls-1" d="M85.9,206.58a11.22,11.22,0,0,1-11.35-11.35V24.61A11.22,11.22,0,0,1,85.9,13.26h61.85q30.76,0,46.91,13T210.8,64.05q0,31.08-33.47,42.14Q198.84,111,209,123.51a45.61,45.61,0,0,1,10.16,29.58q0,26.61-17,40t-52.59,13.45Zm62.75-107q18.82,0,30-9.41T189.88,65q0-33.47-42.13-33.46H94.86V99.61Zm.6,88.74q26,0,37.49-8.51t11.51-27.64q0-34.66-47.81-34.66H94.86v70.81Z"/><path class="cls-2" d="M316.57,207.77q-8.67,0-8.67-9.26V21.33q0-9.25,8.67-9.26h2.69q9,0,9,9.26V198.51q0,9.27-9,9.26Z"/><path class="cls-3" d="M515.26,210.17a100.32,100.32,0,0,1-38.84-7.33,89.18,89.18,0,0,1-30.33-20.46,92,92,0,0,1-19.72-31.53,112.55,112.55,0,0,1-7-40.48,111.7,111.7,0,0,1,7.17-40.64,95.22,95.22,0,0,1,19.87-31.82,89.64,89.64,0,0,1,30.48-20.77A106,106,0,0,1,554.7,17,89.27,89.27,0,0,1,585,37.46a92,92,0,0,1,19.72,31.67,113.87,113.87,0,0,1,7,40.64,113.73,113.73,0,0,1-7,40.63,92.16,92.16,0,0,1-19.87,31.83,89.46,89.46,0,0,1-30.63,20.61A101.44,101.44,0,0,1,515.26,210.17Zm.6-17.63a74.83,74.83,0,0,0,30.18-6,69.49,69.49,0,0,0,23.75-16.88,77.38,77.38,0,0,0,15.54-26,96.27,96.27,0,0,0,5.53-33.31,94.42,94.42,0,0,0-5.68-33.17,80.57,80.57,0,0,0-15.69-26.29,71.57,71.57,0,0,0-23.9-17.33,76.86,76.86,0,0,0-60.51-.15,71.17,71.17,0,0,0-23.75,17,77.21,77.21,0,0,0-15.54,26,96.08,96.08,0,0,0-5.53,33.31,93.85,93.85,0,0,0,5.68,33.32,80.73,80.73,0,0,0,15.69,26.14,69.82,69.82,0,0,0,23.9,17.18A74.23,74.23,0,0,0,515.86,192.54Z"/><path class="cls-4" d="M757,94.83q5.09-6.87,9.12-12.25l9.26-12.4q5.22-7,10.61-14.19,12.54-17,28.68-38.55a17.73,17.73,0,0,1,5.08-4.93,9.71,9.71,0,0,1,4.78-1.34,8.71,8.71,0,0,1,4.78,1.34,15,15,0,0,1,3.44,3,12.47,12.47,0,0,1,1.94,3.14c.4,1,.4,1.69,0,2.09L768,109.17l66.63,88.15c.4.4.4,1.09,0,2.09a12.47,12.47,0,0,1-1.94,3.14,13.57,13.57,0,0,1-3.59,3,9.93,9.93,0,0,1-5.23,1.35,13.19,13.19,0,0,1-6-1.5,16,16,0,0,1-5.38-4.48l-56.77-78.28L697.22,201.5a17.85,17.85,0,0,1-5.07,4.93,9.66,9.66,0,0,1-4.79,1.34,8.63,8.63,0,0,1-4.78-1.34,14.47,14.47,0,0,1-3.43-3,9.21,9.21,0,0,1-1.8-3.14,3.19,3.19,0,0,1-.14-2.09l67.22-89.34L679.6,21.63a3.15,3.15,0,0,1,.14-2.1,9.27,9.27,0,0,1,1.8-3.13,13.73,13.73,0,0,1,3.58-3,10,10,0,0,1,5.23-1.34,14.15,14.15,0,0,1,6.13,1.49A13.39,13.39,0,0,1,701.71,18Z"/></svg>