<svg xmlns="http://www.w3.org/2000/svg" width="48" height="48" viewBox="0 0 48 48"><defs><style>.cls-1{fill:#35dc86;}.cls-2{fill:none;stroke:#474c54;stroke-linecap:round;stroke-linejoin:round;stroke-width:2px;}.cls-3{fill:#a4b0c0;}.cls-4{fill:#d0d7df;}.cls-5{fill:#f1f2f2;}</style></defs><title>17-Hardware</title><g id="_17-Hardware" data-name="17-Hardware"><g id="_Group_" data-name="&lt;Group&gt;"><path class="cls-1" d="M44,32v4l-2,1v2a3,3,0,0,1-3,3H37l-1,2H32l-1-2H27l-1,2H22l-1-2H17l-1,2H12l-1-2H9a3,3,0,0,1-3-3V37L4,36V32l2-1V27L4,26V22l2-1V17L4,16V12l2-1V9A3,3,0,0,1,9,6h2l1-2h4l1,2h4l1-2h4l1,2h4l1-2h4l1,2h2a3,3,0,0,1,3,3v2l2,1v4l-2,1v4l2,1v4l-2,1v4Z"/><path class="cls-2" d="M44,16V12l-2-1V9a3,3,0,0,0-3-3H37L36,4H32L31,6H27L26,4H22L21,6H17L16,4H12L11,6H9A3,3,0,0,0,6,9v2L4,12v4l2,1v4L4,22v4l2,1v4L4,32v4l2,1v2a3,3,0,0,0,3,3h2l1,2h4l1-2h4l1,2h4l1-2h4l1,2h4l1-2h2a3,3,0,0,0,3-3V37l2-1V32l-2-1V27l2-1V22l-2-1V17Z"/></g><line class="cls-2" x1="10" y1="10" x2="11" y2="10"/><line class="cls-2" x1="37" y1="10" x2="38" y2="10"/><line class="cls-2" x1="37" y1="38" x2="38" y2="38"/><line class="cls-2" x1="10" y1="38" x2="11" y2="38"/><line class="cls-2" x1="16" y1="38" x2="32" y2="38"/><line class="cls-2" x1="16" y1="10" x2="32" y2="10"/><g id="_Group_2" data-name="&lt;Group&gt;"><path class="cls-3" d="M36,17v4H12V17a2.006,2.006,0,0,1,2-2H34A2.006,2.006,0,0,1,36,17Z"/><path class="cls-4" d="M36,25v6a2.006,2.006,0,0,1-2,2H14a2.006,2.006,0,0,1-2-2V21H36Z"/><rect class="cls-5" x="12" y="21" width="24" height="4"/><path class="cls-2" d="M16,21H36V17a2.006,2.006,0,0,0-2-2H14a2.006,2.006,0,0,0-2,2V31a2.006,2.006,0,0,0,2,2H34a2.006,2.006,0,0,0,2-2V25"/></g><line class="cls-2" x1="14" y1="4" x2="14" y2="1"/><line class="cls-2" x1="24" y1="4" x2="24" y2="1"/><line class="cls-2" x1="34" y1="4" x2="34" y2="1"/><line class="cls-2" x1="14" y1="47" x2="14" y2="44"/><line class="cls-2" x1="24" y1="47" x2="24" y2="44"/><line class="cls-2" x1="34" y1="47" x2="34" y2="44"/><line class="cls-2" x1="44" y1="14" x2="47" y2="14"/><line class="cls-2" x1="44" y1="24" x2="47" y2="24"/><line class="cls-2" x1="44" y1="34" x2="47" y2="34"/><line class="cls-2" x1="1" y1="14" x2="4" y2="14"/><line class="cls-2" x1="1" y1="24" x2="4" y2="24"/><line class="cls-2" x1="1" y1="34" x2="4" y2="34"/><line class="cls-2" x1="16" y1="25" x2="32" y2="25"/><line class="cls-2" x1="16" y1="29" x2="18" y2="29"/><line class="cls-2" x1="30" y1="29" x2="32" y2="29"/><line class="cls-2" x1="23" y1="29" x2="25" y2="29"/></g></svg>