<svg xmlns="http://www.w3.org/2000/svg" viewBox="0 0 64 64"><defs><style>.cls-1{fill:#f6f6f6;}.cls-2{fill:#ccd6e3;}.cls-3{fill:#69d3ff;}.cls-4{fill:#fe7073;}.cls-5{fill:#fc5452;}.cls-6{fill:#32c5f4;}.cls-7{fill:#ffb05e;}.cls-8{fill:#fd9b3a;}.cls-9{fill:#8687c9;}.cls-10{fill:#626393;}.cls-11{fill:#252340;}</style></defs><title>14-Mobile Application</title><g id="_14-Mobile_Application" data-name="14-Mobile Application"><path class="cls-1" d="M9,51V61a2,2,0,0,0,2,2H47a2,2,0,0,0,2-2V51Z"/><path class="cls-2" d="M43,51V61a2,2,0,0,1-2,2h6a2,2,0,0,0,2-2V51Z"/><rect class="cls-3" x="9" y="7" width="40" height="44"/><rect class="cls-1" x="17" y="1" width="26" height="6"/><path class="cls-2" d="M49,3a2,2,0,0,0-2-2H43V7h6Z"/><path class="cls-2" d="M11,1A2,2,0,0,0,9,3V7h8V1Z"/><rect class="cls-4" x="25" y="55" width="8" height="4" rx="1" ry="1"/><path class="cls-5" d="M32,55H30a1,1,0,0,1,1,1v2a1,1,0,0,1-1,1h2a1,1,0,0,0,1-1V56A1,1,0,0,0,32,55Z"/><path class="cls-6" d="M41.423,33.275c-6.842-.584-12.714-5.087-19.375-6.754A29.032,29.032,0,0,0,9,26.513V51H49V32.593A25.207,25.207,0,0,1,41.423,33.275Z"/><path class="cls-7" d="M42,31l-.1.08L46,36v5H34V40a32.549,32.549,0,0,0-3-13c0-6,4-8,4-8h1V16a2.938,2.938,0,0,1,3-3h2v4c6,0,7,3,7,3l1,1,6,6-3,3H49l-3-3Z"/><path class="cls-8" d="M34,27c0-6,4-8,4-8h1V16a2.718,2.718,0,0,1,2-2.824V13H39a2.938,2.938,0,0,0-3,3v3H35s-4,2-4,8a32.549,32.549,0,0,1,3,13v1h3V40A32.549,32.549,0,0,0,34,27Z"/><polygon class="cls-9" points="50 41 51 45 49 45 30 45 31 41 34 41 46 41 50 41"/><polygon class="cls-10" points="50 41 46 41 47 45 49 45 51 45 50 41"/><rect class="cls-2" x="13" y="11" width="6" height="6"/><rect class="cls-2" x="23" y="11" width="6" height="6"/><polygon class="cls-1" points="27.5 11 27.5 15.5 23 15.5 23 17 29 17 29 11 27.5 11"/><polygon class="cls-1" points="17.5 11 17.5 15.5 13 15.5 13 17 19 17 19 11 17.5 11"/><rect class="cls-7" x="13" y="21" width="6" height="6"/><rect class="cls-7" x="23" y="21" width="6" height="6"/><rect class="cls-2" x="13" y="31" width="6" height="6"/><rect class="cls-2" x="23" y="31" width="6" height="6"/><rect class="cls-7" x="13" y="41" width="6" height="6"/><polygon class="cls-8" points="27.5 21 27.5 25.5 23 25.5 23 27 29 27 29 21 27.5 21"/><polygon class="cls-8" points="17.5 21 17.5 25.5 13 25.5 13 27 19 27 19 21 17.5 21"/><polygon class="cls-1" points="27.5 31 27.5 35.5 23 35.5 23 37 29 37 29 31 27.5 31"/><polygon class="cls-1" points="17.5 31 17.5 35.5 13 35.5 13 37 19 37 19 31 17.5 31"/><polygon class="cls-8" points="17.5 41 17.5 45.5 13 45.5 13 47 19 47 19 41 17.5 41"/><path class="cls-11" d="M32,54H26a2,2,0,0,0-2,2v2a2,2,0,0,0,2,2h6a2,2,0,0,0,2-2V56A2,2,0,0,0,32,54Zm0,4-6,0V56h6Z"/><rect class="cls-11" x="13" y="50" width="32" height="2"/><path class="cls-11" d="M55.707,26.293,50,20.586V3a3,3,0,0,0-3-3H11A3,3,0,0,0,8,3V61a3,3,0,0,0,3,3H47a3,3,0,0,0,3-3V46h1a1,1,0,0,0,.97-1.242l-1-4A1,1,0,0,0,50,40H47V36a1.008,1.008,0,0,0-.231-.641l-3.507-4.207L46,28.414l2.293,2.293A1,1,0,0,0,49,31h3a1,1,0,0,0,.707-.293l3-3A1,1,0,0,0,55.707,26.293ZM48,3V6H44V2h3A1,1,0,0,1,48,3ZM18,6V2H42V6ZM11,2h5V6H10V3A1,1,0,0,1,11,2ZM48,61a1,1,0,0,1-1,1H11a1,1,0,0,1-1-1V8H48V18.28c-.933-.95-2.713-2.062-6-2.251V13a1,1,0,0,0-1-1H39a3.888,3.888,0,0,0-4,4v2a1,1,0,0,0-.447.105C34.367,18.2,30,20.457,30,27a1,1,0,0,0,.105.447A31.658,31.658,0,0,1,33,40H31a1,1,0,0,0-.97.758l-1,4A1,1,0,0,0,30,46H48Zm1.719-17H31.281l.5-2H49.219Zm1.867-15H49.414l-2.707-2.707a1,1,0,0,0-1.414,0L42,29.586V26H40v4a1,1,0,0,0,.231.64L45,36.362V40H35a33.359,33.359,0,0,0-3-13.224c.081-4.454,2.561-6.332,3.265-6.776H37V16a1.882,1.882,0,0,1,2-2h1v7h2V18.033c4.211.271,5.024,2.215,5.052,2.283a1.011,1.011,0,0,0,.241.391L53.586,27Z"/><path class="cls-11" d="M13,18h6a1,1,0,0,0,1-1V11a1,1,0,0,0-1-1H13a1,1,0,0,0-1,1v6A1,1,0,0,0,13,18Zm1-6h4v4H14Z"/><path class="cls-11" d="M23,18h6a1,1,0,0,0,1-1V11a1,1,0,0,0-1-1H23a1,1,0,0,0-1,1v6A1,1,0,0,0,23,18Zm1-6h4v4H24Z"/><path class="cls-11" d="M13,28h6a1,1,0,0,0,1-1V21a1,1,0,0,0-1-1H13a1,1,0,0,0-1,1v6A1,1,0,0,0,13,28Zm1-6h4v4H14Z"/><path class="cls-11" d="M23,28h5V26H24V22h5V20H23a1,1,0,0,0-1,1v6A1,1,0,0,0,23,28Z"/><path class="cls-11" d="M13,38h6a1,1,0,0,0,1-1V31a1,1,0,0,0-1-1H13a1,1,0,0,0-1,1v6A1,1,0,0,0,13,38Zm1-6h4v4H14Z"/><path class="cls-11" d="M23,38h6a1,1,0,0,0,1-1V31a1,1,0,0,0-1-1H23a1,1,0,0,0-1,1v6A1,1,0,0,0,23,38Zm1-6h4v4H24Z"/><path class="cls-11" d="M19,48a1,1,0,0,0,1-1V41a1,1,0,0,0-1-1H13a1,1,0,0,0-1,1v6a1,1,0,0,0,1,1Zm-5-6h4v4H14Z"/><rect class="cls-11" x="22" y="45" width="5" height="2"/><rect class="cls-11" x="22" y="41" width="2" height="2"/></g></svg>