<svg xmlns="http://www.w3.org/2000/svg" viewBox="0 0 64 64"><defs><style>.cls-1{fill:#69d3ff;}.cls-2{fill:#32c5f4;}.cls-3{fill:#f6f6f6;}.cls-4{fill:#ccd6e3;}.cls-5{fill:#8687c9;}.cls-6{fill:#fe7073;}.cls-7{fill:#fc5452;}.cls-8{fill:#626393;}.cls-9{fill:#ffb05e;}.cls-10{fill:#fd9b3a;}.cls-11{fill:#252340;}</style></defs><title>19-Mobile Application</title><g id="_19-Mobile_Application" data-name="19-Mobile Application"><rect class="cls-1" x="14" y="43" width="36" height="8"/><rect class="cls-2" x="14" y="43" width="36" height="4"/><path class="cls-3" d="M14,51V61a2,2,0,0,0,2,2H48a2,2,0,0,0,2-2V51Z"/><path class="cls-4" d="M45,51V61a2,2,0,0,1-2,2h5a2,2,0,0,0,2-2V51Z"/><path class="cls-5" d="M52,6V43H36v4l-5-4H12V6H52Z"/><rect class="cls-6" x="28" y="55" width="8" height="4" rx="1" ry="1"/><path class="cls-7" d="M35,55H32a1,1,0,0,1,1,1v2a1,1,0,0,1-1,1h3a1,1,0,0,0,1-1V56A1,1,0,0,0,35,55Z"/><rect class="cls-4" x="12" y="1" width="8" height="5"/><rect class="cls-4" x="46" y="1" width="6" height="5"/><rect class="cls-3" x="20" y="1" width="26" height="5"/><polygon class="cls-8" points="48 6 12 6 12 9 48 9 48 43 52 43 52 9 52 6 48 6"/><rect class="cls-9" x="16" y="10" width="6" height="6"/><polygon class="cls-10" points="20 10 20 14 16 14 16 16 22 16 22 10 20 10"/><rect class="cls-9" x="42" y="10" width="6" height="6"/><polygon class="cls-10" points="46 10 46 14 42 14 42 16 48 16 48 10 46 10"/><rect class="cls-9" x="16" y="32" width="6" height="6"/><polygon class="cls-10" points="20 32 20 36 16 36 16 38 22 38 22 32 20 32"/><rect class="cls-9" x="42" y="32" width="6" height="6"/><polygon class="cls-10" points="46 32 46 36 42 36 42 38 48 38 48 32 46 32"/><polygon class="cls-3" points="36 43 36 47 31 43 28 43 29 39 32 39 35 39 36 43"/><polygon class="cls-6" points="34 29 34 32 30 32 30 29 32 27 34 29"/><path class="cls-9" d="M32,27l-2,2v3h4V29Zm0-15,8,19v3s-5,1-5,5H29c0-4-5-5-5-5V31Z"/><path class="cls-11" d="M35,54H29a2,2,0,0,0-2,2v2a2,2,0,0,0,2,2h6a2,2,0,0,0,2-2V56A2,2,0,0,0,35,54Zm0,4-6,0V56h6Z"/><rect class="cls-11" x="18" y="50" width="28" height="2"/><path class="cls-11" d="M52,0H12a1,1,0,0,0-1,1V43a1,1,0,0,0,1,1h1V61a3,3,0,0,0,3,3H48a3,3,0,0,0,3-3V44h1a1,1,0,0,0,1-1V1A1,1,0,0,0,52,0ZM51,5H47V2h4ZM21,5V2H45V5ZM19,2V5H13V2ZM49,61a1,1,0,0,1-1,1H16a1,1,0,0,1-1-1V44H30.649l4.726,3.781A1,1,0,0,0,37,47V44H49ZM33,29.414V31H31V29.414l1-1Zm-2-2.828-1.707,1.707A1,1,0,0,0,29,29v3a1,1,0,0,0,1,1h4a1,1,0,0,0,1-1V29a1,1,0,0,0-.293-.707L33,26.586V16.952L39,31.2v2.027c-1.855.584-4.388,2.067-4.9,4.771H29.9c-.513-2.7-3.046-4.187-4.9-4.771V31.2l6-14.25ZM29.78,40h4.44L35,43.121v1.8l-3.375-2.7A1,1,0,0,0,31,42H29.28Zm7,2L36,38.885c.1-3.029,4.027-3.87,4.194-3.905A1,1,0,0,0,41,34V31a.992.992,0,0,0-.078-.388L33.506,13H39V11H25v2h5.494L23.078,30.612A.992.992,0,0,0,23,31v3a1,1,0,0,0,.8.98c.042.009,4.093.855,4.194,3.905L27.22,42H13V7H51V42Z"/><path class="cls-11" d="M22,9H16a1,1,0,0,0-1,1v6a1,1,0,0,0,1,1h6a1,1,0,0,0,1-1V10A1,1,0,0,0,22,9Zm-1,6H17V11h4Z"/><path class="cls-11" d="M17,33h4V31H16a1,1,0,0,0-1,1v6a1,1,0,0,0,1,1h6V37H17Z"/><path class="cls-11" d="M48,9H42a1,1,0,0,0-1,1v6a1,1,0,0,0,1,1h6a1,1,0,0,0,1-1V10A1,1,0,0,0,48,9Zm-1,6H43V11h4Z"/><rect class="cls-11" x="18" y="19" width="2" height="2"/><rect class="cls-11" x="18" y="23" width="2" height="2"/><rect class="cls-11" x="18" y="27" width="2" height="2"/><rect class="cls-11" x="44" y="19" width="2" height="2"/><rect class="cls-11" x="44" y="23" width="2" height="2"/><rect class="cls-11" x="44" y="27" width="2" height="2"/><path class="cls-11" d="M48,31H43v2h4v4H42v2h6a1,1,0,0,0,1-1V32A1,1,0,0,0,48,31Z"/></g></svg>